<svg width="20" height="20" viewBox="0 0 20 20" fill="none" xmlns="http://www.w3.org/2000/svg">
<g clip-path="url(#clip0_173_339)">
<path d="M9.78329 14.7917H14.7166C14.6416 14.8584 14.5666 14.9167 14.4916 14.9834L10.9333 17.65C9.75829 18.525 7.84163 18.525 6.65829 17.65L3.09163 14.9834C2.30829 14.4 1.66663 13.1084 1.66663 12.1334V5.95838C1.66663 4.94172 2.44163 3.81672 3.39163 3.45838L7.54163 1.90005C8.22496 1.64172 9.35829 1.64172 10.0416 1.90005L14.1833 3.45838C14.975 3.75838 15.65 4.59172 15.8583 5.44172H9.77496C9.59163 5.44172 9.42496 5.45005 9.26663 5.45005C7.72496 5.54172 7.32496 6.10005 7.32496 7.85838V12.3834C7.33329 14.3 7.82496 14.7917 9.78329 14.7917Z" stroke="#3A38FF" stroke-width="1.66667" stroke-linecap="round" stroke-linejoin="round"/>
<path d="M7.33337 9.34998H18.3334" stroke="#3A38FF" stroke-width="1.66667" stroke-miterlimit="10" stroke-linecap="round" stroke-linejoin="round"/>
<path d="M18.3334 7.85005V12.475C18.3167 14.325 17.8084 14.7834 15.8834 14.7834H9.78337C7.82504 14.7834 7.33337 14.2917 7.33337 12.3667V7.84172C7.33337 6.09172 7.73337 5.53338 9.27504 5.43338C9.43337 5.43338 9.60004 5.42505 9.78337 5.42505H15.8834C17.8417 5.43338 18.3334 5.91672 18.3334 7.85005Z" stroke="#3A38FF" stroke-width="1.66667" stroke-linecap="round" stroke-linejoin="round"/>
<path d="M9.43335 12.7167H10.5417M12.2917 12.7167H15.0167" stroke="#3A38FF" stroke-width="1.66667" stroke-miterlimit="10" stroke-linecap="round" stroke-linejoin="round"/>
</g>
<defs>
<clipPath id="clip0_173_339">
<rect width="20" height="20" fill="white"/>
</clipPath>
</defs>
</svg>
